<svg width="22" height="26" viewBox="0 0 22 26" fill="none" xmlns="http://www.w3.org/2000/svg">
<path d="M21.6331 5.02801C21.5357 4.91682 21.4164 4.82693 21.2827 4.76395C21.149 4.70098 21.0038 4.66627 20.8561 4.66201C18.5611 4.60201 15.6571 2.14801 13.7371 1.18501C12.5511 0.592007 11.7681 0.201007 11.1801 0.0980065C11.0607 0.0806091 10.9394 0.0809461 10.8201 0.0990065C10.2321 0.202007 9.44907 0.593007 8.26407 1.18601C6.34407 2.14801 3.44007 4.60201 1.14507 4.66201C0.997237 4.66649 0.851904 4.70129 0.718075 4.76425C0.584247 4.82721 0.464776 4.91698 0.367067 5.02801C0.16454 5.25714 0.0600462 5.55662 0.0760668 5.86201C0.569067 15.885 4.16407 22.088 10.4721 25.693C10.6361 25.786 10.8181 25.834 10.9991 25.834C11.1801 25.834 11.3621 25.786 11.5271 25.693C17.8351 22.088 21.4291 15.885 21.9231 5.86201C21.94 5.55666 21.8358 5.25696 21.6331 5.02801ZM16.6171 8.97001L11.2941 16.825C11.1031 17.107 10.8031 17.294 10.5061 17.294C10.2081 17.294 9.87707 17.131 9.66807 16.922L5.91607 13.169C5.79357 13.0461 5.72479 12.8796 5.72479 12.706C5.72479 12.5324 5.79357 12.366 5.91607 12.243L6.84307 11.314C6.96628 11.192 7.13267 11.1235 7.30607 11.1235C7.47947 11.1235 7.64586 11.192 7.76907 11.314L10.2091 13.754L14.4481 7.49701C14.5461 7.35382 14.6969 7.25527 14.8674 7.22285C15.0379 7.19044 15.2143 7.2268 15.3581 7.32401L16.4431 8.06001C16.5864 8.15793 16.6852 8.30861 16.7178 8.47912C16.7504 8.64962 16.7142 8.82611 16.6171 8.97001Z" fill="black"/>
</svg>
