<svg width="14" height="14" viewBox="0 0 14 14" fill="none" xmlns="http://www.w3.org/2000/svg">
<path d="M12 7.5V5.5C12 5.23478 11.8946 4.98043 11.7071 4.79289C11.5196 4.60535 11.2652 4.5 11 4.5H1.5C1.23478 4.5 0.98043 4.60535 0.792893 4.79289C0.605357 4.98043 0.5 5.23478 0.5 5.5V12.5C0.5 12.7652 0.605357 13.0196 0.792893 13.2071C0.98043 13.3946 1.23478 13.5 1.5 13.5H11C11.2652 13.5 11.5196 13.3946 11.7071 13.2071C11.8946 13.0196 12 12.7652 12 12.5V10M3.84 2L9.51 0.519996C9.57371 0.502044 9.64041 0.497188 9.70605 0.505721C9.77169 0.514253 9.83492 0.535997 9.89193 0.569641C9.94894 0.603285 9.99854 0.64813 10.0377 0.701471C10.0769 0.754812 10.1049 0.815542 10.12 0.879996L10.4 2" stroke="black" stroke-linecap="round" stroke-linejoin="round"/>
<path d="M13 7.5H10.5C10.2239 7.5 10 7.72386 10 8V9.5C10 9.77614 10.2239 10 10.5 10H13C13.2761 10 13.5 9.77614 13.5 9.5V8C13.5 7.72386 13.2761 7.5 13 7.5Z" stroke="black" stroke-linecap="round" stroke-linejoin="round"/>
</svg>
