<svg width="14" height="12" viewBox="0 0 14 12" fill="none" xmlns="http://www.w3.org/2000/svg">
<path d="M12.4976 1.06089C12.1799 0.724555 11.8028 0.457752 11.3877 0.275722C10.9726 0.0936915 10.5276 0 10.0783 0C9.629 0 9.18407 0.0936915 8.76897 0.275722C8.35386 0.457752 7.97671 0.724555 7.65907 1.06089L6.99983 1.75857L6.3406 1.06089C5.69898 0.381838 4.82874 0.000351975 3.92135 0.000351982C3.01395 0.000351989 2.14372 0.381838 1.50209 1.06089C0.860462 1.73994 0.5 2.66092 0.5 3.62124C0.5 4.58157 0.860462 5.50255 1.50209 6.1816L2.16132 6.87928L6.99983 12L11.8383 6.87928L12.4976 6.1816C12.8154 5.84543 13.0675 5.44628 13.2395 5.00697C13.4115 4.56765 13.5 4.09678 13.5 3.62124C13.5 3.14571 13.4115 2.67484 13.2395 2.23552C13.0675 1.79621 12.8154 1.39706 12.4976 1.06089Z" fill="#C6B7B7"/>
</svg>
