<svg width="24" height="25" viewBox="0 0 24 25" fill="none" xmlns="http://www.w3.org/2000/svg">
<g clip-path="url(#clip0_0_668)">
<path d="M9 22.0547C9.55228 22.0547 10 21.607 10 21.0547C10 20.5024 9.55228 20.0547 9 20.0547C8.44772 20.0547 8 20.5024 8 21.0547C8 21.607 8.44772 22.0547 9 22.0547Z" stroke="white" stroke-width="2" stroke-linecap="round" stroke-linejoin="round"/>
<path d="M20 22.0547C20.5523 22.0547 21 21.607 21 21.0547C21 20.5024 20.5523 20.0547 20 20.0547C19.4477 20.0547 19 20.5024 19 21.0547C19 21.607 19.4477 22.0547 20 22.0547Z" stroke="white" stroke-width="2" stroke-linecap="round" stroke-linejoin="round"/>
<path d="M1 1.05469H5L7.68 14.4447C7.77144 14.9051 8.02191 15.3187 8.38755 15.613C8.75318 15.9073 9.2107 16.0637 9.68 16.0547L14.54 12.0547L19.4 16.0547C19.8693 16.0637 20.3268 15.9073 20.6925 15.613C21.0581 15.3187 21.3086 14.9051 21.4 14.4447L23 6.05469" stroke="white" stroke-width="2" stroke-linecap="round" stroke-linejoin="round"/>
</g>
<defs>
<clipPath id="clip0_0_668">
<rect width="24" height="24" fill="white" transform="translate(0 0.0546875)"/>
</clipPath>
</defs>
</svg>
