<svg width="31" height="28" viewBox="0 0 31 28" fill="none" xmlns="http://www.w3.org/2000/svg">
<path d="M3.094 0L1.655 1.439L7.845 7.594L20.814 20.563L27.657 27.438L29.095 26L22.751 19.657C26.849 17.571 29.903 14.629 30.095 14.437L30.751 13.782L30.126 13.062C29.867 12.763 23.77 5.719 15.375 5.719C13.383 5.719 11.527 6.137 9.844 6.75L3.094 0ZM15.375 7.719C17.539 7.719 19.535 8.274 21.313 9.063C21.988 10.164 22.375 11.418 22.375 12.719C22.375 14.535 21.675 16.188 20.531 17.438L17.688 14.594C18.125 14.0661 18.3675 13.4042 18.375 12.719C18.375 11.067 17.027 9.719 15.375 9.719C14.6896 9.72664 14.0277 9.96953 13.5 10.407L11.437 8.344C12.677 7.973 13.985 7.719 15.375 7.719ZM6 8.594C2.762 10.582 0.77 12.891 0.625 13.063L0 13.782L0.656 14.438C0.941 14.723 7.473 21.102 14.437 21.656H14.5C14.79 21.68 15.086 21.719 15.375 21.719C15.665 21.719 15.961 21.679 16.25 21.656H16.313C17.1148 21.589 17.9094 21.4531 18.688 21.25L16.968 19.532C16.718 19.59 16.449 19.629 16.188 19.657L16.063 19.687C15.593 19.727 15.153 19.727 14.688 19.687L14.594 19.657C12.885 19.4691 11.3055 18.6573 10.1579 17.3771C9.01039 16.0969 8.37554 14.4383 8.375 12.719C8.375 12.184 8.441 11.669 8.563 11.156L6 8.594ZM6.656 10.563C6.47403 11.2674 6.37965 11.9915 6.375 12.719C6.375 14.332 6.813 15.84 7.563 17.157C5.86617 16.1377 4.26558 14.9663 2.781 13.657C3.96482 12.4974 5.26312 11.4608 6.656 10.563ZM24.094 10.563C25.4802 11.4682 26.7682 12.5155 27.937 13.688C26.4625 14.9865 24.8726 16.1476 23.187 17.157C23.9634 15.8066 24.373 14.2766 24.375 12.719C24.3677 11.9917 24.2734 11.2679 24.094 10.563ZM15.375 11.719C15.925 11.719 16.375 12.169 16.375 12.719C16.375 12.883 16.32 13.019 16.25 13.157L14.937 11.844C15.0704 11.7668 15.2209 11.7238 15.375 11.719Z" fill="#A6A6A6"/>
</svg>
