<svg width="40" height="40" viewBox="0 0 40 40" fill="none" xmlns="http://www.w3.org/2000/svg">
<g clip-path="url(#clip0_0_1454)">
<path d="M19.8917 39.1799C30.6613 39.1799 39.3917 30.4495 39.3917 19.6799C39.3917 8.91038 30.6613 0.179932 19.8917 0.179932C9.12217 0.179932 0.391724 8.91038 0.391724 19.6799C0.391724 30.4495 9.12217 39.1799 19.8917 39.1799Z" fill="#3B5998"/>
<path d="M24.794 20.4433H21.3145V33.1907H16.0427V20.4433H13.5354V15.9633H16.0427V13.0643C16.0427 10.9912 17.0274 7.74487 21.3614 7.74487L25.2664 7.76121V12.1098H22.4331C21.9683 12.1098 21.3148 12.342 21.3148 13.3309V15.9675H25.2546L24.794 20.4433Z" fill="white"/>
</g>
<defs>
<clipPath id="clip0_0_1454">
<rect width="39" height="39" fill="white" transform="translate(0.391724 0.179932)"/>
</clipPath>
</defs>
</svg>
