<svg width="35" height="18" viewBox="0 0 35 18" fill="none" xmlns="http://www.w3.org/2000/svg">
<path d="M0.857129 9.04587C0.842459 9.03013 0.828253 9.01484 0.814515 9C0.828253 8.98517 0.842459 8.96987 0.857129 8.95413C1.08122 8.71361 1.41341 8.36821 1.84217 7.95288C2.7002 7.12172 3.94219 6.01318 5.47593 4.90532C8.55391 2.68202 12.7534 0.5 17.3546 0.5C21.9557 0.5 26.1552 2.68202 29.2332 4.90532C30.7669 6.01318 32.0089 7.12172 32.867 7.95288C33.2957 8.36821 33.6279 8.71361 33.852 8.95413C33.8667 8.96987 33.8809 8.98517 33.8946 9C33.8809 9.01484 33.8667 9.03013 33.852 9.04587C33.6279 9.28639 33.2957 9.63179 32.867 10.0471C32.0089 10.8783 30.7669 11.9868 29.2332 13.0947C26.1552 15.318 21.9557 17.5 17.3546 17.5C12.7534 17.5 8.55391 15.318 5.47593 13.0947C3.94219 11.9868 2.7002 10.8783 1.84217 10.0471C1.41341 9.63179 1.08122 9.28639 0.857129 9.04587Z" stroke="#A6A6A6"/>
<path d="M24.679 8.70005C24.679 12.1775 21.4608 15.1 17.355 15.1C13.2491 15.1 10.0309 12.1775 10.0309 8.70005C10.0309 5.22263 13.2491 2.30005 17.355 2.30005C21.4608 2.30005 24.679 5.22263 24.679 8.70005Z" stroke="#A6A6A6"/>
<path d="M20.9236 8.6999C20.9236 10.1875 19.5288 11.4999 17.6681 11.4999C15.8074 11.4999 14.4125 10.1875 14.4125 8.6999C14.4125 7.21229 15.8074 5.8999 17.6681 5.8999C19.5288 5.8999 20.9236 7.21229 20.9236 8.6999Z" fill="#A6A6A6" stroke="#A6A6A6"/>
</svg>
