<svg width="40" height="40" viewBox="0 0 40 40" fill="none" xmlns="http://www.w3.org/2000/svg">
<g clip-path="url(#clip0_0_1458)">
<path d="M23.6241 19.6799C23.6241 21.7413 21.9531 23.4124 19.8917 23.4124C17.8303 23.4124 16.1593 21.7413 16.1593 19.6799C16.1593 17.6185 17.8303 15.9475 19.8917 15.9475C21.9531 15.9475 23.6241 17.6185 23.6241 19.6799Z" fill="#3B5998"/>
<path d="M28.6205 13.0763C28.4411 12.5902 28.1549 12.1501 27.7829 11.7889C27.4217 11.4169 26.9819 11.1307 26.4954 10.9513C26.1009 10.798 25.5082 10.6156 24.4165 10.5659C23.2355 10.5121 22.8814 10.5005 19.8917 10.5005C16.9016 10.5005 16.5476 10.5118 15.3669 10.5657C14.2752 10.6156 13.6822 10.798 13.2879 10.9513C12.8015 11.1307 12.3614 11.4169 12.0005 11.7889C11.6285 12.1501 11.3423 12.5899 11.1626 13.0763C11.0093 13.4709 10.8269 14.0639 10.7773 15.1556C10.7234 16.3363 10.7118 16.6903 10.7118 19.6804C10.7118 22.6701 10.7234 23.0242 10.7773 24.2052C10.8269 25.2969 11.0093 25.8896 11.1626 26.2841C11.3423 26.7706 11.6282 27.2104 12.0002 27.5716C12.3614 27.9436 12.8012 28.2298 13.2877 28.4092C13.6822 28.5627 14.2752 28.7451 15.3669 28.7948C16.5476 28.8487 16.9014 28.86 19.8914 28.86C22.8817 28.86 23.2358 28.8487 24.4162 28.7948C25.5079 28.7451 26.1009 28.5627 26.4954 28.4092C27.472 28.0325 28.2438 27.2607 28.6205 26.2841C28.7738 25.8896 28.9561 25.2969 29.0061 24.2052C29.06 23.0242 29.0713 22.6701 29.0713 19.6804C29.0713 16.6903 29.06 16.3363 29.0061 15.1556C28.9564 14.0639 28.774 13.4709 28.6205 13.0763ZM19.8917 25.4299C16.716 25.4299 14.1416 22.8558 14.1416 19.6801C14.1416 16.5044 16.716 13.9303 19.8917 13.9303C23.0671 13.9303 25.6415 16.5044 25.6415 19.6801C25.6415 22.8558 23.0671 25.4299 19.8917 25.4299ZM25.8688 15.0467C25.1267 15.0467 24.5251 14.4451 24.5251 13.703C24.5251 12.9609 25.1267 12.3593 25.8688 12.3593C26.6109 12.3593 27.2125 12.9609 27.2125 13.703C27.2122 14.4451 26.6109 15.0467 25.8688 15.0467Z" fill="#3B5998"/>
<path d="M19.8917 0.179932C9.12382 0.179932 0.391724 8.91203 0.391724 19.6799C0.391724 30.4478 9.12382 39.1799 19.8917 39.1799C30.6596 39.1799 39.3917 30.4478 39.3917 19.6799C39.3917 8.91203 30.6596 0.179932 19.8917 0.179932ZM31.0214 24.2964C30.9673 25.4883 30.7778 26.3021 30.501 27.0145C29.9193 28.5185 28.7303 29.7075 27.2262 30.2892C26.5142 30.566 25.7001 30.7552 24.5085 30.8097C23.3144 30.8641 22.9329 30.8772 19.892 30.8772C16.8508 30.8772 16.4696 30.8641 15.2753 30.8097C14.0836 30.7552 13.2695 30.566 12.5575 30.2892C11.8101 30.0081 11.1334 29.5674 10.5741 28.9976C10.0046 28.4385 9.56389 27.7616 9.28271 27.0145C9.00599 26.3024 8.81645 25.4883 8.7623 24.2967C8.70725 23.1023 8.69446 22.7209 8.69446 19.6799C8.69446 16.639 8.70725 16.2576 8.762 15.0635C8.81615 13.8715 9.00539 13.0577 9.28211 12.3454C9.56329 11.5983 10.0043 10.9214 10.5741 10.3623C11.1331 9.79247 11.8101 9.3518 12.5572 9.07062C13.2695 8.7939 14.0833 8.60466 15.2753 8.55021C16.4693 8.49576 16.8508 8.48267 19.8917 8.48267C22.9326 8.48267 23.3141 8.49576 24.5082 8.55051C25.7001 8.60466 26.5139 8.7939 27.2262 9.07032C27.9734 9.3515 28.6503 9.79247 29.2097 10.3623C29.7792 10.9217 30.2202 11.5983 30.501 12.3454C30.7781 13.0577 30.9673 13.8715 31.0217 15.0635C31.0762 16.2576 31.089 16.639 31.089 19.6799C31.089 22.7209 31.0762 23.1023 31.0214 24.2964Z" fill="#3B5998"/>
</g>
<defs>
<clipPath id="clip0_0_1458">
<rect width="39" height="39" fill="white" transform="translate(0.391724 0.179932)"/>
</clipPath>
</defs>
</svg>
