<svg width="40" height="40" viewBox="0 0 40 40" fill="none" xmlns="http://www.w3.org/2000/svg">
<g clip-path="url(#clip0_0_1467)">
<path d="M19.8917 39.179C30.6613 39.179 39.3917 30.4485 39.3917 19.679C39.3917 8.9094 30.6613 0.178955 19.8917 0.178955C9.12217 0.178955 0.391724 8.9094 0.391724 19.679C0.391724 30.4485 9.12217 39.179 19.8917 39.179Z" fill="#007AB9"/>
<path d="M31.5427 21.2487V29.2881H26.8817V21.7875C26.8817 19.9042 26.2087 18.618 24.5211 18.618C23.2332 18.618 22.4681 19.4839 22.1302 20.3223C22.0075 20.622 21.9759 21.038 21.9759 21.4583V29.2878H17.3145C17.3145 29.2878 17.3771 16.5842 17.3145 15.2692H21.9763V17.2557C21.9669 17.2714 21.9537 17.2867 21.9453 17.3016H21.9763V17.2557C22.5957 16.3026 23.7004 14.94 26.1771 14.94C29.2437 14.94 31.5427 16.9436 31.5427 21.2487ZM12.4383 8.51172C10.8438 8.51172 9.80066 9.55836 9.80066 10.9335C9.80066 12.2794 10.8136 13.3563 12.3771 13.3563H12.4074C14.0331 13.3563 15.0439 12.2794 15.0439 10.9335C15.013 9.55836 14.0331 8.51172 12.4383 8.51172ZM10.0777 29.2881H14.7374V15.2692H10.0777V29.2881Z" fill="#F1F2F2"/>
</g>
<defs>
<clipPath id="clip0_0_1467">
<rect width="39" height="39" fill="white" transform="translate(0.391724 0.179932)"/>
</clipPath>
</defs>
</svg>
