<svg width="26" height="24" viewBox="0 0 26 24" fill="none" xmlns="http://www.w3.org/2000/svg">
<path d="M19.821 11H5.21606C4.06376 11 3.12964 11.8954 3.12964 13V20C3.12964 21.1046 4.06376 22 5.21606 22H19.821C20.9733 22 21.9074 21.1046 21.9074 20V13C21.9074 11.8954 20.9733 11 19.821 11Z" stroke="#0AAEB9" stroke-width="2" stroke-linecap="round" stroke-linejoin="round"/>
<path d="M7.30249 11V7C7.30249 5.67392 7.85204 4.40215 8.83024 3.46447C9.80843 2.52678 11.1352 2 12.5185 2C13.9019 2 15.2286 2.52678 16.2068 3.46447C17.185 4.40215 17.7346 5.67392 17.7346 7V11" stroke="#0AAEB9" stroke-width="2" stroke-linecap="round" stroke-linejoin="round"/>
</svg>
