<svg width="32" height="16" viewBox="0 0 32 16" fill="none" xmlns="http://www.w3.org/2000/svg">
<path d="M16 0C7.66401 0 1.25001 7.344 1.25001 7.344L0.656006 8L1.25001 8.656C1.25001 8.656 7.09801 15.324 14.875 15.938C15.246 15.984 15.617 16 16 16C16.383 16 16.754 15.984 17.125 15.937C24.902 15.324 30.75 8.657 30.75 8.657L31.344 8L30.75 7.344C30.75 7.344 24.336 0 16 0ZM16 2C18.203 2 20.234 2.602 22 3.406C22.6575 4.48925 23.0035 5.73284 23 7C23.0042 8.72378 22.3718 10.3884 21.2241 11.6746C20.0764 12.9607 18.4942 13.7778 16.781 13.969C16.761 13.973 16.738 13.965 16.719 13.969C16.48 13.98 16.242 14 16 14C15.734 14 15.477 13.984 15.219 13.969C13.5059 13.7778 11.9236 12.9607 10.7759 11.6746C9.62819 10.3884 8.99577 8.72378 9.00001 7C9.00001 5.695 9.35201 4.48 9.96901 3.437H9.93801C11.717 2.617 13.773 2 16 2ZM16 4C15.2041 4.00027 14.4409 4.3167 13.8783 4.87968C13.3157 5.44266 12.9997 6.20609 13 7.002C13.0003 7.79791 13.3167 8.56113 13.8797 9.12374C14.4427 9.68634 15.2061 10.0023 16.002 10.002C16.3961 10.0019 16.7863 9.92412 17.1504 9.77318C17.5144 9.62224 17.8452 9.40108 18.1237 9.12232C18.4023 8.84356 18.6233 8.51266 18.774 8.14851C18.9246 7.78436 19.0021 7.3941 19.002 7C19.0019 6.6059 18.9241 6.21569 18.7732 5.85164C18.6223 5.4876 18.4011 5.15684 18.1223 4.87827C17.8436 4.59969 17.5127 4.37875 17.1485 4.22806C16.7844 4.07736 16.3941 3.99987 16 4ZM7.25001 4.938C7.08742 5.61339 7.00353 6.30533 7.00001 7C7.00001 8.754 7.50001 10.395 8.37501 11.781C6.59981 10.7411 4.97085 9.46958 3.53101 8C4.66447 6.85649 5.91045 5.83129 7.25001 4.938ZM24.75 4.938C26.0895 5.83097 27.3355 6.85684 28.469 8C27.0292 9.46958 25.4002 10.7411 23.625 11.781C24.527 10.3498 25.0038 8.69175 25 7C25 6.285 24.906 5.603 24.75 4.938Z" fill="#A6A6A6"/>
</svg>
