<svg width="40" height="40" viewBox="0 0 40 40" fill="none" xmlns="http://www.w3.org/2000/svg">
<g clip-path="url(#clip0_0_1462)">
<path d="M19.8919 39.1802C30.6612 39.1802 39.3915 30.4499 39.3915 19.6806C39.3915 8.9112 30.6612 0.180908 19.8919 0.180908C9.1225 0.180908 0.392212 8.9112 0.392212 19.6806C0.392212 30.4499 9.1225 39.1802 19.8919 39.1802Z" fill="#CB2027"/>
<path d="M21.4657 26.2922C19.9915 26.1782 19.3721 25.4472 18.216 24.7454C17.5806 28.0792 16.804 31.2751 14.504 32.9446C13.7931 27.9058 15.5461 24.1211 16.3601 20.1039C14.9725 17.768 16.527 13.0664 19.4538 14.225C23.056 15.6494 16.3351 22.9104 20.847 23.8173C25.5573 24.7642 27.4802 15.6442 24.559 12.6778C20.3384 8.39502 12.2738 12.5805 13.2655 18.7114C13.507 20.2103 15.056 20.6653 13.8842 22.7335C11.183 22.1353 10.3773 20.0048 10.4808 17.1646C10.648 12.5155 14.6583 9.26019 18.6807 8.8097C23.7678 8.24033 28.5425 10.6777 29.2015 15.4628C29.943 20.8634 26.9049 26.7121 21.4657 26.2922Z" fill="#F1F2F2"/>
</g>
<defs>
<clipPath id="clip0_0_1462">
<rect width="39" height="39" fill="white" transform="translate(0.391724 0.179932)"/>
</clipPath>
</defs>
</svg>
